<svg xmlns="http://www.w3.org/2000/svg"  viewBox="0 0 64 64" width="64px" height="64px" baseProfile="basic"><linearGradient id="rCL6Z99xuWNqhJgSBXPNVa" x1="32" x2="32" y1="36" y2="56" gradientUnits="userSpaceOnUse"><stop offset="0" stop-color="#8ab4ff"/><stop offset="1" stop-color="#e492ff"/></linearGradient><path fill="url(#rCL6Z99xuWNqhJgSBXPNVa)" d="M35.633,49.64l-2.097,2.516c-0.155,0.186-0.34,0.325-0.536,0.439V56h-2v-3.405	c-0.196-0.114-0.381-0.253-0.536-0.439l-2.097-2.516c-0.543-0.651-0.08-1.64,0.768-1.64h5.73C35.713,48,36.176,48.989,35.633,49.64z M55,39h-9.141c-0.446-1.722-1.997-3-3.859-3c-2.209,0-4,1.791-4,4c0,2.209,1.791,4,4,4c1.862,0,3.412-1.278,3.859-3H55V39z M9,41	h9.141c0.446,1.722,1.997,3,3.859,3c2.209,0,4-1.791,4-4c0-2.209-1.791-4-4-4c-1.862,0-3.413,1.278-3.859,3H9V41z"/><linearGradient id="rCL6Z99xuWNqhJgSBXPNVb" x1="32" x2="32" y1="1" y2="57" gradientUnits="userSpaceOnUse"><stop offset="0" stop-color="#1A6DFF"/><stop offset="1" stop-color="#C822FF"/></linearGradient><path fill="url(#rCL6Z99xuWNqhJgSBXPNVb)" d="M45.537,1.651c-0.148-0.4-0.494-0.645-0.965-0.651c-0.428,0.012-0.801,0.294-0.928,0.703	l-5.311,17.071C37.094,18.462,34.786,18,32,18s-5.094,0.462-6.334,0.774L20.355,1.703c-0.127-0.409-0.5-0.691-0.928-0.703	c-0.01,0-0.019,0-0.027,0c-0.417,0-0.792,0.259-0.938,0.651C18.036,2.802,8,29.919,8,38.5c0,13.085,16.02,18.241,16.702,18.454	C24.798,56.984,24.898,57,25,57h14c0.102,0,0.202-0.016,0.298-0.046C39.98,56.741,56,51.585,56,38.5	C56,29.919,45.964,2.802,45.537,1.651z M49.785,48.233L47.7,45.205l-1.646,1.135l2.262,3.286c-0.515,0.443-1.044,0.854-1.575,1.24	l-1.769-2.569l-1.646,1.135l1.757,2.552c-0.595,0.371-1.177,0.706-1.736,1.007l-1.102-1.601l-1.646,1.135l0.944,1.371	c-1.338,0.62-2.349,0.984-2.704,1.105H25.161c-0.354-0.121-1.366-0.485-2.704-1.105l0.944-1.371l-1.646-1.135l-1.102,1.601	c-0.559-0.301-1.141-0.635-1.736-1.007l1.757-2.552l-1.646-1.135l-1.769,2.569c-0.531-0.386-1.059-0.797-1.575-1.24l2.262-3.286	L16.3,45.205l-2.085,3.028C11.827,45.745,10,42.529,10,38.5c0-6.667,6.726-26.1,9.328-33.367l4.717,15.164	c0.08,0.257,0.26,0.471,0.499,0.593c0.238,0.123,0.516,0.145,0.772,0.059C25.345,20.939,28.206,20,32,20	c3.773,0,6.656,0.939,6.685,0.949c0.256,0.085,0.533,0.062,0.772-0.06c0.238-0.123,0.418-0.336,0.498-0.593l4.717-15.164	C47.274,12.4,54,31.833,54,38.5C54,42.529,52.173,45.745,49.785,48.233z"/></svg>