<svg xmlns="http://www.w3.org/2000/svg"  viewBox="0 0 64 64" width="64px" height="64px"><path fill="#8d6c9f" d="M59.416,10.611c-0.066,0.548,0.326,1.046,0.874,1.112l1.986,0.238	c0.548,0.066,1.046-0.326,1.112-0.874c0.066-0.548-0.326-1.046-0.874-1.112l-1.986-0.238C59.98,9.672,59.482,10.063,59.416,10.611z M58.82,15.576c-0.066,0.548,0.326,1.046,0.874,1.112l1.986,0.238c0.548,0.066,1.046-0.326,1.112-0.874	c0.066-0.548-0.326-1.046-0.874-1.112l-1.986-0.238C59.385,14.636,58.886,15.027,58.82,15.576z M58.225,20.54	c-0.066,0.548,0.326,1.046,0.874,1.112l1.986,0.238c0.548,0.066,1.046-0.326,1.112-0.874c0.066-0.548-0.326-1.046-0.874-1.112	l-1.986-0.238C58.789,19.6,58.29,19.992,58.225,20.54z"/><path fill="#8b8e98" d="M12.24,24.44l2.19,0.39c1.68-2.16,3.91-3.99,6.52-5.33l0.44-2.41C17.6,18.74,14.42,21.3,12.24,24.44 z M12.24,24.44l2.19,0.39c1.68-2.16,3.91-3.99,6.52-5.33l0.44-2.41C17.6,18.74,14.42,21.3,12.24,24.44z"/><path fill="#a9a7ae" d="M54,34.5c0,7.22-4.57,13.82-11.93,17.22C38.83,53.21,35.18,54,31.5,54c-4,0-7.94-0.93-11.38-2.68 C13.26,47.84,9,41.39,9,34.5c0-2.94,0.75-5.73,2.11-8.23c0.33-0.63,0.71-1.24,1.13-1.83l2.19,0.39c1.68-2.16,3.91-3.99,6.52-5.33 l0.44-2.41c0.71-0.32,1.43-0.59,2.18-0.83C26.04,15.44,28.71,15,31.5,15c2.4,0,4.71,0.33,6.87,0.94c0.74,0.2,1.46,0.43,2.16,0.71 c4.2,1.59,7.73,4.28,10.12,7.63c0.43,0.59,0.81,1.2,1.16,1.82C53.21,28.65,54,31.49,54,34.5z"/><path fill="#fff" d="M36.917,28.583c0,1.6-0.942,3.033-2.5,3.858V34h-5.833v-1.558c-1.558-0.825-2.5-2.258-2.5-3.858 c0-2.525,2.433-4.583,5.417-4.583S36.917,26.058,36.917,28.583z"/><path fill="#a9a7ae" d="M55.622,5.428l-0.859,0.434l-0.849,0.425l-15.393,7.72l0.434,2.407l0.368,2.076	c0.708,0.226,1.397,0.491,2.067,0.793c2.85,1.265,5.285,3.114,7.078,5.37c0.434,0.547,0.84,1.114,1.189,1.708l1.982-0.359	l3.294-0.595l1.869-16.969l0.104-0.934L57,6.561C56.321,6.561,55.754,6.07,55.622,5.428z"/><path fill="#a9a7ae" d="M6.378,5.428C6.246,6.07,5.679,6.561,5,6.561l0.198,1.878l1.869,16.969l4.162,0.755l1.963,0.349	c0.349-0.595,0.736-1.161,1.17-1.708c1.585-2.038,3.69-3.766,6.153-5.03c0.67-0.349,1.368-0.661,2.095-0.925l0.378-2.133	l0.491-2.709L8.086,6.287L6.378,5.428z"/><path fill="#a9a7ae" d="M61,4c0,1.93-1.57,3.5-3.5,3.5c-0.07,0-0.15,0-0.22-0.01c-1.41-0.08-2.59-1.01-3.06-2.28 C54.08,4.83,54,4.42,54,4c0-1.93,1.57-3.5,3.5-3.5S61,2.07,61,4z"/><path fill="#a9a7ae" d="M8,4c0,1.93-1.57,3.5-3.5,3.5c-0.07,0-0.15,0-0.22-0.01C2.87,7.41,1.69,6.48,1.22,5.21 C1.08,4.83,1,4.42,1,4c0-1.93,1.57-3.5,3.5-3.5S8,2.07,8,4z"/><path fill="#fff" d="M17,54.75c0,1.241-1.009,2.25-2.25,2.25c-0.045,0-0.096,0-0.141-0.006 c-0.906-0.051-1.665-0.649-1.967-1.466c-0.09-0.244-0.141-0.508-0.141-0.778c0-1.241,1.009-2.25,2.25-2.25S17,53.509,17,54.75z"/><path fill="#fff" d="M26,59.75c0,1.241-1.009,2.25-2.25,2.25c-0.045,0-0.096,0-0.141-0.006 c-0.906-0.051-1.665-0.649-1.967-1.466c-0.09-0.244-0.141-0.508-0.141-0.778c0-1.241,1.009-2.25,2.25-2.25S26,58.509,26,59.75z"/><path fill="#fff" d="M40,59.75c0,1.241-1.009,2.25-2.25,2.25c-0.045,0-0.096,0-0.141-0.006 c-0.906-0.051-1.665-0.649-1.967-1.466c-0.09-0.244-0.141-0.508-0.141-0.778c0-1.241,1.009-2.25,2.25-2.25S40,58.509,40,59.75z"/><path fill="#fff" d="M49,54.75c0,1.241-1.009,2.25-2.25,2.25c-0.045,0-0.096,0-0.141-0.006 c-0.906-0.051-1.665-0.649-1.967-1.466c-0.09-0.244-0.141-0.508-0.141-0.778c0-1.241,1.009-2.25,2.25-2.25S49,53.509,49,54.75z"/><path fill="#8b8e98" d="M14,55c0-0.09,0.01-0.19,0.04-0.27l-0.98,0.76L12.4,56H15C14.45,56,14,55.55,14,55z"/><path fill="#a9a7ae" d="M49.41,56.33l-0.9-0.03l-3.1-0.09l-1.17-0.04l-4.85-0.15l-0.34,1.18l-0.27,0.96l-0.29,0.98 C38.35,59.05,38.18,59,38,59c-0.55,0-1,0.45-1,1v0.01l-0.95-0.46l-0.91-0.44l-4.12-1.99l-4.12,2.15l-0.92,0.48l-1.03,0.53 C24.99,60.19,25,60.1,25,60c0-0.55-0.45-1-1-1c-0.23,0-0.44,0.08-0.61,0.21l-0.4-0.94l-0.39-0.93L22.04,56H15c0.55,0,1-0.45,1-1 s-0.45-1-1-1c-0.01,0-0.01,0-0.02,0l0.97-0.76h0.01l0.83-0.64l3.93-3.05l0.55,0.25c3.18,1.44,6.82,2.2,10.52,2.2 c3.4,0,6.78-0.65,9.77-1.88l0.58-0.23l3.06,2.71l0.77,0.69l0.83,0.73C46.34,54.11,46,54.52,46,55c0,0.55,0.45,1,1,1 c0.53,0,0.96-0.41,0.99-0.93l0.84,0.74L49.41,56.33z"/><path fill="#fff" d="M45.58,46.003c-0.507,1.548-1.375,2.881-2.048,3.776c-0.72,0.43-1.486,0.823-2.279,1.181h-0.009 C38.254,52.293,34.896,53,31.5,53c-3.405,0-6.754-0.707-9.744-2.04c-0.258-0.116-0.507-0.233-0.757-0.358 c-0.526-0.26-1.043-0.537-1.532-0.832c-0.683-0.895-1.55-2.237-2.058-3.785c-0.388-1.208-0.563-2.55-0.249-3.91 c0.6-2.595,2.805-4.617,6.56-6.012c0.166-0.063,0.341-0.081,0.517-0.045c2.953,0.573,6.025,1.951,7.123,2.478 c1.144-0.51,4.429-1.906,7.4-2.478c0.175-0.036,0.351-0.018,0.517,0.045c3.755,1.396,5.961,3.418,6.56,6.012 C46.153,43.435,45.977,44.786,45.58,46.003z"/><path fill="#8d6c9f" d="M14,55c0-0.09,0.01-0.19,0.04-0.27l-0.98,0.76L12.4,56H15C14.45,56,14,55.55,14,55z M48.83,55.81 l-0.84-0.74C47.96,55.59,47.53,56,47,56c-0.55,0-1-0.45-1-1c0-0.48,0.34-0.89,0.8-0.98l-0.83-0.73L45.2,52.6l-3.06-2.71l-0.58,0.23 C38.57,51.35,35.19,52,31.79,52c-3.7,0-7.34-0.76-10.52-2.2l-0.55-0.25l-3.93,3.05l-0.83,0.64h-0.01L14.98,54c0.01,0,0.01,0,0.02,0 c0.55,0,1,0.45,1,1s-0.45,1-1,1h6.374c0.403,0,0.767,0.242,0.923,0.614L22.6,57.34l0.39,0.93l0.4,0.94C23.56,59.08,23.77,59,24,59 c0.55,0,1,0.45,1,1c0,0.1-0.01,0.19-0.05,0.28l1.03-0.53l0.92-0.48l3.229-1.685c0.56-0.292,1.226-0.303,1.795-0.028l3.215,1.553 l0.91,0.44L37,60.01V60c0-0.55,0.45-1,1-1c0.18,0,0.35,0.05,0.49,0.14l0.29-0.98l0.396-1.391c0.126-0.441,0.535-0.74,0.993-0.725 l4.071,0.126l1.17,0.04l3.1,0.09l0.9,0.03L48.83,55.81z M38.669,54.003c-0.458-0.014-0.867,0.286-0.992,0.727l-0.697,2.46 l-0.15,0.51l-0.46-0.22l-4.486-2.164c-0.569-0.274-1.233-0.264-1.793,0.028l-4.31,2.246l-0.74,0.39l-0.38-0.9l-1.042-2.469 C23.462,54.241,23.099,54,22.697,54H18.25L21,51.86c3.3,1.4,7.02,2.14,10.79,2.14c3.44,0,6.87-0.62,9.95-1.79l2.21,1.95 L38.669,54.003z"/><path fill="#8d6c9f" d="M12.24,24.44l2.19,0.39c1.68-2.16,3.91-3.99,6.52-5.33l0.44-2.41C17.6,18.74,14.42,21.3,12.24,24.44 z M51.81,26.1c-0.35-0.62-0.73-1.23-1.16-1.82c-2.39-3.35-5.92-6.04-10.12-7.63c-0.7-0.28-1.42-0.51-2.16-0.71 C36.21,15.33,33.9,15,31.5,15c-2.79,0-5.46,0.44-7.93,1.26c-0.75,0.24-1.47,0.51-2.18,0.83c-3.79,1.65-6.97,4.21-9.15,7.35 c-0.42,0.59-0.8,1.2-1.13,1.83C9.75,28.77,9,31.56,9,34.5c0,6.89,4.26,13.34,11.12,16.82C23.56,53.07,27.5,54,31.5,54 c3.68,0,7.33-0.79,10.57-2.28C49.43,48.32,54,41.72,54,34.5C54,31.49,53.21,28.65,51.81,26.1z M41.23,49.91 C38.26,51.28,34.89,52,31.5,52c-3.69,0-7.31-0.85-10.48-2.46C14.84,46.4,11,40.63,11,34.5c0-2.82,0.79-5.5,2.19-7.86 c0.37-0.63,0.78-1.23,1.24-1.81c1.68-2.16,3.91-3.99,6.52-5.33c0.71-0.37,1.45-0.7,2.22-0.98C25.71,17.54,28.54,17,31.5,17 c2.56,0,5,0.4,7.26,1.14c0.75,0.24,1.48,0.52,2.19,0.84c3.02,1.34,5.6,3.3,7.5,5.69c0.46,0.58,0.89,1.18,1.26,1.81 c1.46,2.4,2.29,5.13,2.29,8.02C52,40.93,47.87,46.84,41.23,49.91z"/><path fill="#8d6c9f" d="M33.5,35h-5c-0.552,0-1-0.448-1-1v-0.865c-1.867-0.991-3-2.717-3-4.635c0-3.032,2.916-5.5,6.5-5.5 s6.5,2.468,6.5,5.5c0,1.918-1.133,3.644-3,4.635V34C34.5,34.552,34.052,35,33.5,35z M29.5,33.125h3v0.014 c0-0.723,0.384-1.395,1.018-1.741c0.87-0.473,1.982-1.376,1.982-2.898c0-1.93-2.019-3.5-4.5-3.5s-4.5,1.57-4.5,3.5 c0,1.522,1.112,2.425,1.982,2.898c0.635,0.345,1.018,1.018,1.018,1.741V33.125z"/><ellipse cx="28.5" cy="28.778" fill="#8d6c9f" rx="1.222" ry="1" transform="rotate(-68.345 28.5 28.778)"/><ellipse cx="33.5" cy="28.778" fill="#8d6c9f" rx="1" ry="1.222" transform="rotate(-21.655 33.503 28.78)"/><ellipse cx="31.006" cy="48.399" fill="#8d6c9f" rx="1.994" ry="1.399"/><path fill="#8d6c9f" d="M42.746,51c-0.248,0-0.497-0.086-0.69-0.26c-0.399-0.358-0.415-0.954-0.034-1.33 c0.039-0.04,3.946-3.961,3.069-7.618c-0.454-1.89-2.145-3.45-5.034-4.645c-0.371-0.153-0.787-0.188-1.178-0.097 c-3.418,0.794-7.07,2.451-7.109,2.468c-0.284,0.132-0.619,0.127-0.901-0.013c-0.036-0.018-3.389-1.661-6.744-2.453 c-0.393-0.093-0.813-0.058-1.186,0.096c-2.885,1.194-4.575,2.754-5.029,4.644c-0.877,3.656,2.802,7.793,2.841,7.833 c0.381,0.376,0.594,0.756,0.194,1.115c-0.397,0.358-1.03,0.346-1.412-0.031c-0.192-0.188-4.683-4.68-3.576-9.323 c0.62-2.602,2.834-4.66,6.583-6.123c0.552-0.215,1.163-0.239,1.742-0.111c2.463,0.542,4.906,1.517,6.312,2.133 c0.489,0.214,1.034,0.218,1.528,0.015c1.504-0.619,4.166-1.63,6.709-2.172c0.54-0.115,1.113-0.067,1.627,0.134 c3.752,1.463,5.967,3.522,6.588,6.125c1.106,4.642-3.384,9.134-3.576,9.323C43.271,50.903,43.009,51,42.746,51z"/><path fill="#8d6c9f" d="M23.42,13.05L7.81,5.22L7.78,5.21L5.97,4.3C5.86,5.08,5.29,5.71,4.55,5.92l0.17,1.57l0.05,0.43 l1.85,16.81C6.67,25.17,7,25.52,7.43,25.6l3.68,0.67l2.08,0.37c0.37-0.63,0.78-1.23,1.24-1.81l-2.19-0.39L9.26,23.9 c-0.44-0.08-0.77-0.43-0.82-0.87L6.68,6.97L6.67,6.89l0.06,0.03l14.45,7.26c0.4,0.19,0.62,0.63,0.54,1.06l-0.33,1.85l-0.44,2.41 c0.71-0.37,1.45-0.7,2.22-0.98l0.4-2.26l0.39-2.13C24.04,13.69,23.82,13.25,23.42,13.05z"/><path fill="#8d6c9f" d="M57,6c-0.84,0-1.56-0.52-1.85-1.25l-0.03,0.01l-0.9,0.45l-0.86,0.43l-14.78,7.41 c-0.4,0.2-0.62,0.64-0.54,1.08l0.33,1.81l0.39,2.2c0.75,0.24,1.48,0.52,2.19,0.84l-0.42-2.33l-0.25-1.41 c-0.08-0.43,0.14-0.87,0.54-1.06l13.83-6.95l0.68-0.34l-0.08,0.7l-1.69,15.44c-0.05,0.44-0.38,0.79-0.82,0.87l-2.09,0.38l-2.2,0.39 c0.46,0.58,0.89,1.18,1.26,1.81l2.1-0.38l2.76-0.5c0.43-0.08,0.76-0.43,0.81-0.87l1.85-16.74l0.05-0.5l0.11-0.99l0.06-0.55 C57.31,5.98,57.16,6,57,6z"/><path fill="#8d6c9f" d="M26.1,43.74c-0.32,1.32-1.12,3.65-2.77,3.2c-1.07-0.29-1.68-1.74-1.34-3.4 c0.05-0.24,0.11-0.46,0.19-0.68l-0.83-0.5c-0.42-0.25-0.59-0.76-0.41-1.21c0.16-0.39,0.53-0.62,0.92-0.62 c0.17,0,0.35,0.04,0.51,0.14l0.97,0.59l2.3,1.37C26.02,42.86,26.2,43.31,26.1,43.74z"/><path fill="#8d6c9f" d="M36.652,43.74c0.32,1.32,1.12,3.65,2.77,3.2c1.07-0.29,1.68-1.74,1.34-3.4 c-0.05-0.24-0.11-0.46-0.19-0.68l0.83-0.5c0.42-0.25,0.59-0.76,0.41-1.21c-0.16-0.39-0.53-0.62-0.92-0.62 c-0.17,0-0.35,0.04-0.51,0.14l-0.97,0.59l-2.3,1.37C36.732,42.86,36.552,43.31,36.652,43.74z"/><path fill="#8d6c9f" d="M15.96,53.24h-0.01C15.67,53.09,15.34,53,15,53c-1.1,0-2,0.9-2,2c0,0.17,0.02,0.34,0.06,0.49 c0.05,0.18,0.12,0.35,0.21,0.51c0.35,0.6,0.99,1,1.73,1s1.38-0.4,1.73-1C16.9,55.71,17,55.36,17,55 C17,54.25,16.58,53.59,15.96,53.24z M14,55c0-0.09,0.01-0.19,0.04-0.27c0.12-0.41,0.49-0.72,0.94-0.73c0.01,0,0.01,0,0.02,0 c0.55,0,1,0.45,1,1s-0.45,1-1,1S14,55.55,14,55z"/><path fill="#8d6c9f" d="M16.79,52.6C16.29,52.22,15.66,52,15,52c-1.65,0-3,1.35-3,3c0,1.65,1.35,3,3,3 c1.3,0,2.41-0.84,2.82-2c0.12-0.31,0.18-0.65,0.18-1C18,54.02,17.52,53.14,16.79,52.6z M14,55c0-0.09,0.01-0.19,0.04-0.27 c0.12-0.41,0.49-0.72,0.94-0.73c0.01,0,0.01,0,0.02,0c0.55,0,1,0.45,1,1s-0.45,1-1,1S14,55.55,14,55z"/><g><path fill="#8d6c9f" d="M47,53c-0.38,0-0.73,0.1-1.03,0.29C45.39,53.64,45,54.28,45,55c0,0.45,0.15,0.87,0.41,1.21 C45.78,56.69,46.35,57,47,57c0.6,0,1.15-0.27,1.51-0.7c0.13-0.15,0.24-0.31,0.32-0.49C48.94,55.56,49,55.29,49,55 C49,53.9,48.1,53,47,53z M47,56c-0.55,0-1-0.45-1-1c0-0.48,0.34-0.89,0.8-0.98C46.86,54.01,46.93,54,47,54c0.55,0,1,0.45,1,1 c0,0.02,0,0.05-0.01,0.07C47.96,55.59,47.53,56,47,56z"/><path fill="#8d6c9f" d="M47,52c-0.67,0-1.3,0.23-1.8,0.6C44.47,53.15,44,54.02,44,55c0,0.41,0.09,0.81,0.24,1.17 C44.7,57.25,45.77,58,47,58c1.65,0,3-1.35,3-3C50,53.35,48.65,52,47,52z M47,56c-0.55,0-1-0.45-1-1c0-0.48,0.34-0.89,0.8-0.98 C46.86,54.01,46.93,54,47,54c0.55,0,1,0.45,1,1c0,0.02,0,0.05-0.01,0.07C47.96,55.59,47.53,56,47,56z"/></g><g><path fill="#8d6c9f" d="M38.78,58.16C38.54,58.06,38.28,58,38,58c-0.94,0-1.74,0.66-1.95,1.55C36.02,59.69,36,59.84,36,60 c0,1.1,0.9,2,2,2s2-0.9,2-2C40,59.18,39.49,58.46,38.78,58.16z M38,61c-0.55,0-0.99-0.44-1-0.99V60c0-0.55,0.45-1,1-1 c0.18,0,0.35,0.05,0.49,0.14C38.79,59.3,39,59.63,39,60C39,60.55,38.55,61,38,61z"/><path fill="#8d6c9f" d="M39.05,57.2C38.72,57.07,38.37,57,38,57c-0.36,0-0.7,0.06-1.02,0.19l-0.15,0.51l-0.46-0.22 c-0.58,0.38-1.02,0.96-1.23,1.63C35.05,59.39,35,59.69,35,60c0,1.65,1.35,3,3,3s3-1.35,3-3C41,58.72,40.19,57.62,39.05,57.2z M37,60.01V60c0-0.55,0.45-1,1-1c0.18,0,0.35,0.05,0.49,0.14C38.79,59.3,39,59.63,39,60c0,0.55-0.45,1-1,1S37.01,60.56,37,60.01z"/></g><g><path fill="#8d6c9f" d="M25.98,59.75C25.86,58.76,25.01,58,24,58c-0.37,0-0.71,0.1-1.01,0.27C22.4,58.62,22,59.27,22,60 c0,1.1,0.9,2,2,2s2-0.9,2-2C26,59.91,25.99,59.83,25.98,59.75z M24,61c-0.55,0-1-0.45-1-1c0-0.32,0.15-0.61,0.39-0.79 C23.56,59.08,23.77,59,24,59c0.55,0,1,0.45,1,1c0,0.1-0.01,0.19-0.05,0.28C24.84,60.7,24.45,61,24,61z"/><path fill="#8d6c9f" d="M26.9,59.27c-0.16-0.68-0.57-1.28-1.12-1.68l-0.74,0.39l-0.38-0.9C24.45,57.03,24.23,57,24,57 c-0.5,0-0.98,0.13-1.4,0.34C21.65,57.85,21,58.85,21,60c0,1.65,1.35,3,3,3s3-1.35,3-3C27,59.75,26.97,59.5,26.9,59.27z M24,61 c-0.55,0-1-0.45-1-1c0-0.32,0.15-0.61,0.39-0.79C23.56,59.08,23.77,59,24,59c0.55,0,1,0.45,1,1c0,0.1-0.01,0.19-0.05,0.28 C24.84,60.7,24.45,61,24,61z"/></g><g><path fill="#8d6c9f" d="M4,0C1.79,0,0,1.79,0,4c0,2.21,1.79,4,4,4c0.26,0,0.52-0.03,0.77-0.08C5.5,7.78,6.15,7.44,6.68,6.97 C6.7,6.95,6.72,6.94,6.73,6.92c0.5-0.46,0.87-1.04,1.08-1.7C7.93,4.83,8,4.42,8,4C8,1.79,6.21,0,4,0z M4.55,5.92 C4.38,5.97,4.19,6,4,6C2.9,6,2,5.1,2,4c0-1.1,0.9-2,2-2s2,0.9,2,2c0,0.1-0.01,0.2-0.03,0.3C5.86,5.08,5.29,5.71,4.55,5.92z"/></g><g><path fill="#8d6c9f" d="M57,0c-2.21,0-4,1.79-4,4c0,0.58,0.13,1.14,0.36,1.64c0.28,0.64,0.73,1.19,1.29,1.59 c0.19,0.14,0.39,0.26,0.6,0.36C55.78,7.85,56.37,8,57,8c0.08,0,0.15,0,0.23-0.01C59.33,7.87,61,6.13,61,4C61,1.79,59.21,0,57,0z M57.45,5.95C57.31,5.98,57.16,6,57,6c-0.84,0-1.56-0.52-1.85-1.25C55.05,4.52,55,4.26,55,4c0-1.1,0.9-2,2-2s2,0.9,2,2 C59,4.94,58.34,5.74,57.45,5.95z"/></g></svg>